<svg width="194" height="63" viewBox="0 0 194 63" fill="none" xmlns="http://www.w3.org/2000/svg">
<path d="M30.98 17.4094L32.7355 14.5034C32.7214 14.4967 32.7004 14.4967 32.6863 14.49L34.7156 11.1276H26.465L24.9624 13.6242C11.0944 14.0605 0 24.9464 0 38.3021C0 42.5235 1.10944 46.4967 3.06149 49.9732C4.29732 52.1745 5.87019 54.1745 7.71692 55.9061L9.47236 53L30.9238 17.396C30.9449 17.4027 30.959 17.4094 30.98 17.4094ZM5.11184 46.5839C3.98134 44 3.38449 41.1947 3.38449 38.3021C3.38449 32.5705 5.71571 27.1813 9.95686 23.1343C13.5029 19.745 18.0249 17.6309 22.919 17.0269L5.11184 46.5839Z" fill="white"/>
<path d="M56.3707 0L53.0143 5.57047L49.6579 11.1342L20.6791 59.2013L18.9236 62.1074C21.1215 62.6913 23.4386 63 25.826 63C26.0999 63 26.3667 62.9933 26.6406 62.9866C40.5296 62.5772 51.6591 51.6846 51.6591 38.3087C51.6591 34.0872 50.5497 30.1141 48.5976 26.6376C48.5906 26.6242 48.5836 26.6175 48.5765 26.604L57.9015 11.1342L61.2579 5.57047L64.6143 0H56.3707ZM46.5543 30.0201C47.6848 32.6107 48.2816 35.4094 48.2816 38.302C48.2816 44.0336 45.9434 49.4228 41.7022 53.4765C38.1422 56.8792 33.6062 58.9933 28.6909 59.5906L46.5332 29.9866C46.5402 30 46.5473 30.0134 46.5543 30.0201Z" fill="white"/>
<path d="M49.5456 5.56372H41.3091L37.9667 11.1275L11.6562 54.9463L9.94986 57.7785C11.8176 59.1745 13.8961 60.3288 16.129 61.1946L17.8353 58.3691L46.2032 11.1342L49.5456 5.56372Z" fill="white"/>
<path d="M93.6798 31.5628C93.6798 33.8391 93.2483 35.7757 92.3854 37.3726C91.5292 38.9694 90.3604 40.1891 88.8791 41.0317C87.4046 41.8675 85.7466 42.2854 83.9051 42.2854C82.0501 42.2854 80.3853 41.8641 78.9108 41.0215C77.4362 40.1789 76.2709 38.9592 75.4147 37.3624C74.5585 35.7655 74.1304 33.8323 74.1304 31.5628C74.1304 29.2864 74.5585 27.3498 75.4147 25.753C76.2709 24.1562 77.4362 22.9398 78.9108 22.1041C80.3853 21.2615 82.0501 20.8402 83.9051 20.8402C85.7466 20.8402 87.4046 21.2615 88.8791 22.1041C90.3604 22.9398 91.5292 24.1562 92.3854 25.753C93.2483 27.3498 93.6798 29.2864 93.6798 31.5628ZM89.2053 31.5628C89.2053 30.0883 88.9844 28.8448 88.5428 27.8323C88.1079 26.8198 87.4929 26.052 86.6979 25.5288C85.9029 25.0055 84.972 24.7439 83.9051 24.7439C82.8383 24.7439 81.9074 25.0055 81.1124 25.5288C80.3173 26.052 79.699 26.8198 79.2573 27.8323C78.8224 28.8448 78.605 30.0883 78.605 31.5628C78.605 33.0373 78.8224 34.2808 79.2573 35.2933C79.699 36.3057 80.3173 37.0736 81.1124 37.5968C81.9074 38.12 82.8383 38.3816 83.9051 38.3816C84.972 38.3816 85.9029 38.12 86.6979 37.5968C87.4929 37.0736 88.1079 36.3057 88.5428 35.2933C88.9844 34.2808 89.2053 33.0373 89.2053 31.5628ZM96.8676 47.8709V26.3442H101.148V28.9739H101.342C101.532 28.5526 101.808 28.1245 102.168 27.6896C102.535 27.2479 103.01 26.881 103.595 26.5888C104.186 26.2898 104.92 26.1403 105.796 26.1403C106.938 26.1403 107.991 26.4393 108.956 27.0373C109.921 27.6284 110.692 28.522 111.27 29.7179C111.847 30.9071 112.136 32.3986 112.136 34.1925C112.136 35.9388 111.854 37.4133 111.29 38.6161C110.733 39.812 109.972 40.7191 109.007 41.3375C108.049 41.949 106.975 42.2548 105.786 42.2548C104.943 42.2548 104.227 42.1155 103.635 41.8369C103.051 41.5583 102.572 41.2084 102.198 40.7871C101.825 40.359 101.539 39.9275 101.342 39.4926H101.21V47.8709H96.8676ZM101.118 34.1721C101.118 35.103 101.247 35.915 101.505 36.6081C101.763 37.3012 102.137 37.8414 102.626 38.2287C103.116 38.6093 103.71 38.7995 104.41 38.7995C105.117 38.7995 105.715 38.6059 106.204 38.2185C106.693 37.8244 107.064 37.2808 107.315 36.5877C107.573 35.8878 107.702 35.0826 107.702 34.1721C107.702 33.2683 107.577 32.4733 107.325 31.787C107.074 31.1007 106.703 30.5639 106.214 30.1766C105.725 29.7893 105.124 29.5956 104.41 29.5956C103.703 29.5956 103.105 29.7825 102.616 30.1562C102.134 30.5299 101.763 31.0599 101.505 31.7463C101.247 32.4326 101.118 33.2412 101.118 34.1721ZM123.358 26.3442V29.6058H113.93V26.3442H123.358ZM116.07 22.5933H120.412V37.1891C120.412 37.59 120.474 37.9026 120.596 38.1268C120.718 38.3443 120.888 38.4971 121.106 38.5855C121.33 38.6738 121.588 38.718 121.88 38.718C122.084 38.718 122.288 38.701 122.492 38.667C122.696 38.6263 122.852 38.5957 122.961 38.5753L123.644 41.8063C123.426 41.8743 123.12 41.9524 122.726 42.0408C122.332 42.1359 121.853 42.1937 121.289 42.214C120.243 42.2548 119.325 42.1155 118.537 41.7961C117.756 41.4768 117.147 40.9807 116.713 40.308C116.278 39.6353 116.064 38.7859 116.07 37.7599V22.5933ZM126.187 42V26.3442H130.529V42H126.187ZM128.368 24.326C127.722 24.326 127.168 24.112 126.706 23.6839C126.251 23.249 126.023 22.7292 126.023 22.1244C126.023 21.5265 126.251 21.0134 126.706 20.5854C127.168 20.1505 127.722 19.933 128.368 19.933C129.013 19.933 129.564 20.1505 130.019 20.5854C130.481 21.0134 130.712 21.5265 130.712 22.1244C130.712 22.7292 130.481 23.249 130.019 23.6839C129.564 24.112 129.013 24.326 128.368 24.326ZM148.603 26.3442L143.129 42H138.237L132.763 26.3442H137.35L140.601 37.5458H140.765L144.006 26.3442H148.603ZM157.455 42.3058C155.844 42.3058 154.458 41.9796 153.296 41.3273C152.141 40.6682 151.251 39.7372 150.626 38.5345C150.001 37.325 149.688 35.8946 149.688 34.2434C149.688 32.633 150.001 31.2196 150.626 30.0033C151.251 28.787 152.131 27.8391 153.266 27.1596C154.407 26.4801 155.746 26.1403 157.282 26.1403C158.314 26.1403 159.276 26.3068 160.166 26.6398C161.063 26.9659 161.845 27.4586 162.51 28.1177C163.183 28.7768 163.706 29.6058 164.08 30.6047C164.454 31.5968 164.641 32.7587 164.641 34.0905V35.2831H151.421V32.5922H160.553C160.553 31.9671 160.418 31.4133 160.146 30.9308C159.874 30.4484 159.497 30.0713 159.014 29.7995C158.539 29.5209 157.985 29.3816 157.353 29.3816C156.694 29.3816 156.109 29.5345 155.6 29.8402C155.097 30.1392 154.703 30.5435 154.417 31.0532C154.132 31.556 153.986 32.1166 153.979 32.7349V35.2933C153.979 36.0679 154.122 36.7372 154.407 37.3012C154.699 37.8652 155.111 38.3001 155.641 38.6059C156.171 38.9116 156.799 39.0645 157.526 39.0645C158.009 39.0645 158.45 38.9966 158.851 38.8607C159.252 38.7248 159.595 38.5209 159.881 38.2491C160.166 37.9773 160.384 37.6444 160.533 37.2503L164.549 37.5153C164.345 38.4802 163.927 39.3227 163.295 40.043C162.67 40.7565 161.861 41.3137 160.869 41.7146C159.884 42.1087 158.746 42.3058 157.455 42.3058ZM180.5 30.8085L176.525 31.0532C176.457 30.7134 176.311 30.4076 176.087 30.1358C175.863 29.8572 175.567 29.6364 175.2 29.4733C174.84 29.3034 174.409 29.2185 173.906 29.2185C173.233 29.2185 172.666 29.3612 172.204 29.6466C171.742 29.9252 171.51 30.2989 171.51 30.7678C171.51 31.1415 171.66 31.4575 171.959 31.7157C172.258 31.9739 172.771 32.1811 173.498 32.3374L176.332 32.9082C177.854 33.2208 178.988 33.7236 179.736 34.4167C180.483 35.1098 180.857 36.0203 180.857 37.1483C180.857 38.1744 180.555 39.0747 179.95 39.8494C179.352 40.624 178.53 41.2288 177.483 41.6636C176.444 42.0917 175.244 42.3058 173.885 42.3058C171.813 42.3058 170.162 41.8743 168.932 41.0113C167.709 40.1416 166.992 38.9592 166.781 37.4643L171.052 37.2401C171.181 37.872 171.493 38.3544 171.99 38.6874C172.486 39.0136 173.121 39.1767 173.896 39.1767C174.657 39.1767 175.268 39.0306 175.73 38.7384C176.199 38.4394 176.437 38.0555 176.444 37.5866C176.437 37.1925 176.27 36.8697 175.944 36.6183C175.618 36.3601 175.115 36.163 174.436 36.0271L171.725 35.4869C170.196 35.1812 169.057 34.6511 168.31 33.8969C167.569 33.1426 167.199 32.1811 167.199 31.0124C167.199 30.0067 167.471 29.1403 168.014 28.4133C168.565 27.6862 169.336 27.1256 170.328 26.7315C171.327 26.3374 172.496 26.1403 173.834 26.1403C175.812 26.1403 177.368 26.5582 178.503 27.394C179.644 28.2298 180.31 29.368 180.5 30.8085ZM191.919 26.3442V29.6058H182.49V26.3442H191.919ZM184.631 22.5933H188.973V37.1891C188.973 37.59 189.034 37.9026 189.156 38.1268C189.279 38.3443 189.449 38.4971 189.666 38.5855C189.89 38.6738 190.148 38.718 190.441 38.718C190.645 38.718 190.848 38.701 191.052 38.667C191.256 38.6263 191.412 38.5957 191.521 38.5753L192.204 41.8063C191.987 41.8743 191.681 41.9524 191.287 42.0408C190.893 42.1359 190.413 42.1937 189.849 42.214C188.803 42.2548 187.886 42.1155 187.097 41.7961C186.316 41.4768 185.708 40.9807 185.273 40.308C184.838 39.6353 184.624 38.7859 184.631 37.7599V22.5933Z" fill="white"/>
</svg>
